# xmcd
#
# Track frame offsets: 
#        150
#        13408
#        29217
#        42468
#        58110
#        71736
#        87960
#        101058
#        116861
#        141941
#        164247
#        183810
#        200996
#        227513
#        246862
#        265190
#        286309
#        306584
#        332130
#
# Disc length: 4760 seconds
#
# Revision: 2
# Processed by: cddbd v1.5.2PL0 Copyright (c) Steve Scherf et al.
# Submitted via: ExactAudioCopy v1.0b3
#
DISCID=36129613
DTITLE=Billie Holiday - BILLIE HOLIDAY - The Ultimate Collection [CD 2
DTITLE=)
DYEAR=1900
DGENRE=Blues
TTITLE0=East of the sun
TTITLE1=Blue moon
TTITLE2=You go to my head
TTITLE3=You turned the tables on me
TTITLE4=Easy to love
TTITLE5=These foolish things
TTITLE6=I only have eyes for you
TTITLE7=Solitude
TTITLE8=Prelude to a kiss
TTITLE9=When your lover has gone
TTITLE10=Please don't talk about me
TTITLE11=Nice work if you get it
TTITLE12=I gotta a right to sing the blues
TTITLE13=What's new?
TTITLE14=I hadn't anyone till you
TTITLE15=A foggy day
TTITLE16=Stars fell on Alabama
TTITLE17=One for my baby
TTITLE18=Just one of those things
EXTD=
EXTT0=
EXTT1=
EXTT2=
EXTT3=
EXTT4=
EXTT5=
EXTT6=
EXTT7=
EXTT8=
EXTT9=
EXTT10=
EXTT11=
EXTT12=
EXTT13=
EXTT14=
EXTT15=
EXTT16=
EXTT17=
EXTT18=
PLAYORDER=
